<svg xmlns="http://www.w3.org/2000/svg" xmlns:xlink="http://www.w3.org/1999/xlink" width="216px" height="216px" viewBox="0 0 216 216">
<svg x="0" y="0" xmlns="http://www.w3.org/2000/svg" xmlns:xlink="http://www.w3.org/1999/xlink" width="72px" height="72px" viewBox="0 0 72 72">
    <g class="dots" fill="#ec008b">
      <circle cx="12" cy="12" r="1.5"/>
      <circle cx="24" cy="12" r="1.5"/>
      <circle cx="36" cy="12" r="1.5"/>
      <circle cx="48" cy="12" r="1.5"/>
      <circle cx="60" cy="12" r="1.5"/>
      <circle cx="12" cy="24" r="1.5"/>
      <circle cx="24" cy="24" r="1.5"/>
      <circle cx="36" cy="24" r="1.5"/>
      <circle cx="48" cy="24" r="1.5"/>
      <circle cx="60" cy="24" r="1.5"/>
      <circle cx="12" cy="36" r="1.5"/>
      <circle cx="24" cy="36" r="1.5"/>
      <circle cx="36" cy="36" r="1.5"/>
      <circle cx="48" cy="36" r="1.5"/>
      <circle cx="60" cy="36" r="1.5"/>
      <circle cx="12" cy="48" r="1.5"/>
      <circle cx="24" cy="48" r="1.5"/>
      <circle cx="36" cy="48" r="1.5"/>
      <circle cx="48" cy="48" r="1.5"/>
      <circle cx="60" cy="48" r="1.5"/>
      <circle cx="12" cy="60" r="1.5"/>
      <circle cx="24" cy="60" r="1.5"/>
      <circle cx="36" cy="60" r="1.5"/>
      <circle cx="48" cy="60" r="1.5"/>
      <circle cx="60" cy="60" r="1.5"/>
    </g>
    <g class="lines" fill="none" stroke="black" stroke-width="3" stroke-linecap="round">
      <line x1="24" y1="12" x2="36" y2="12"/>
    <line x1="36" y1="12" x2="48" y2="12"/>
    <line x1="12" y1="36" x2="24" y2="36"/>
    <line x1="24" y1="36" x2="36" y2="36"/>
    <line x1="36" y1="36" x2="48" y2="36"/>
    <line x1="48" y1="36" x2="60" y2="36"/>
    <line x1="24" y1="60" x2="36" y2="60"/>
    <line x1="36" y1="60" x2="48" y2="60"/>
    <line x1="12" y1="12" x2="12" y2="24"/>
    <line x1="24" y1="12" x2="24" y2="24"/>
    <line x1="48" y1="12" x2="48" y2="24"/>
    <line x1="60" y1="12" x2="60" y2="24"/>
    <line x1="24" y1="24" x2="24" y2="36"/>
    <line x1="48" y1="24" x2="48" y2="36"/>
    <line x1="24" y1="36" x2="24" y2="48"/>
    <line x1="48" y1="36" x2="48" y2="48"/>
    <line x1="12" y1="48" x2="12" y2="60"/>
    <line x1="24" y1="48" x2="24" y2="60"/>
    <line x1="48" y1="48" x2="48" y2="60"/>
    <line x1="60" y1="48" x2="60" y2="60"/>
  </g>
  </svg><svg x="72" y="0" xmlns="http://www.w3.org/2000/svg" xmlns:xlink="http://www.w3.org/1999/xlink" width="72px" height="72px" viewBox="0 0 72 72">
    <g class="dots" fill="#ec008b">
      <circle cx="12" cy="12" r="1.5"/>
      <circle cx="24" cy="12" r="1.5"/>
      <circle cx="36" cy="12" r="1.5"/>
      <circle cx="48" cy="12" r="1.5"/>
      <circle cx="60" cy="12" r="1.5"/>
      <circle cx="12" cy="24" r="1.5"/>
      <circle cx="24" cy="24" r="1.5"/>
      <circle cx="36" cy="24" r="1.5"/>
      <circle cx="48" cy="24" r="1.5"/>
      <circle cx="60" cy="24" r="1.5"/>
      <circle cx="12" cy="36" r="1.5"/>
      <circle cx="24" cy="36" r="1.5"/>
      <circle cx="36" cy="36" r="1.5"/>
      <circle cx="48" cy="36" r="1.5"/>
      <circle cx="60" cy="36" r="1.5"/>
      <circle cx="12" cy="48" r="1.5"/>
      <circle cx="24" cy="48" r="1.5"/>
      <circle cx="36" cy="48" r="1.5"/>
      <circle cx="48" cy="48" r="1.5"/>
      <circle cx="60" cy="48" r="1.5"/>
      <circle cx="12" cy="60" r="1.5"/>
      <circle cx="24" cy="60" r="1.5"/>
      <circle cx="36" cy="60" r="1.5"/>
      <circle cx="48" cy="60" r="1.5"/>
      <circle cx="60" cy="60" r="1.5"/>
    </g>
    <g class="lines" fill="none" stroke="black" stroke-width="3" stroke-linecap="round">
      <line x1="24" y1="12" x2="36" y2="12"/>
    <line x1="36" y1="12" x2="48" y2="12"/>
    <line x1="12" y1="36" x2="24" y2="36"/>
    <line x1="24" y1="36" x2="36" y2="36"/>
    <line x1="36" y1="36" x2="48" y2="36"/>
    <line x1="48" y1="36" x2="60" y2="36"/>
    <line x1="24" y1="60" x2="36" y2="60"/>
    <line x1="36" y1="60" x2="48" y2="60"/>
    <line x1="24" y1="12" x2="24" y2="24"/>
    <line x1="36" y1="12" x2="36" y2="24"/>
    <line x1="48" y1="12" x2="48" y2="24"/>
    <line x1="24" y1="24" x2="24" y2="36"/>
    <line x1="36" y1="24" x2="36" y2="36"/>
    <line x1="48" y1="24" x2="48" y2="36"/>
    <line x1="24" y1="36" x2="24" y2="48"/>
    <line x1="36" y1="36" x2="36" y2="48"/>
    <line x1="48" y1="36" x2="48" y2="48"/>
    <line x1="24" y1="48" x2="24" y2="60"/>
    <line x1="36" y1="48" x2="36" y2="60"/>
    <line x1="48" y1="48" x2="48" y2="60"/>
  </g>
  </svg><svg x="144" y="0" xmlns="http://www.w3.org/2000/svg" xmlns:xlink="http://www.w3.org/1999/xlink" width="72px" height="72px" viewBox="0 0 72 72">
    <g class="dots" fill="#ec008b">
      <circle cx="12" cy="12" r="1.5"/>
      <circle cx="24" cy="12" r="1.5"/>
      <circle cx="36" cy="12" r="1.5"/>
      <circle cx="48" cy="12" r="1.5"/>
      <circle cx="60" cy="12" r="1.5"/>
      <circle cx="12" cy="24" r="1.5"/>
      <circle cx="24" cy="24" r="1.5"/>
      <circle cx="36" cy="24" r="1.5"/>
      <circle cx="48" cy="24" r="1.5"/>
      <circle cx="60" cy="24" r="1.5"/>
      <circle cx="12" cy="36" r="1.5"/>
      <circle cx="24" cy="36" r="1.5"/>
      <circle cx="36" cy="36" r="1.5"/>
      <circle cx="48" cy="36" r="1.5"/>
      <circle cx="60" cy="36" r="1.5"/>
      <circle cx="12" cy="48" r="1.5"/>
      <circle cx="24" cy="48" r="1.5"/>
      <circle cx="36" cy="48" r="1.5"/>
      <circle cx="48" cy="48" r="1.5"/>
      <circle cx="60" cy="48" r="1.5"/>
      <circle cx="12" cy="60" r="1.5"/>
      <circle cx="24" cy="60" r="1.5"/>
      <circle cx="36" cy="60" r="1.5"/>
      <circle cx="48" cy="60" r="1.5"/>
      <circle cx="60" cy="60" r="1.5"/>
    </g>
    <g class="lines" fill="none" stroke="black" stroke-width="3" stroke-linecap="round">
      <line x1="12" y1="24" x2="24" y2="24"/>
    <line x1="48" y1="24" x2="60" y2="24"/>
    <line x1="12" y1="36" x2="24" y2="36"/>
    <line x1="24" y1="36" x2="36" y2="36"/>
    <line x1="36" y1="36" x2="48" y2="36"/>
    <line x1="48" y1="36" x2="60" y2="36"/>
    <line x1="12" y1="48" x2="24" y2="48"/>
    <line x1="48" y1="48" x2="60" y2="48"/>
    <line x1="12" y1="12" x2="12" y2="24"/>
    <line x1="36" y1="12" x2="36" y2="24"/>
    <line x1="60" y1="12" x2="60" y2="24"/>
    <line x1="24" y1="24" x2="24" y2="36"/>
    <line x1="36" y1="24" x2="36" y2="36"/>
    <line x1="48" y1="24" x2="48" y2="36"/>
    <line x1="24" y1="36" x2="24" y2="48"/>
    <line x1="36" y1="36" x2="36" y2="48"/>
    <line x1="48" y1="36" x2="48" y2="48"/>
    <line x1="12" y1="48" x2="12" y2="60"/>
    <line x1="36" y1="48" x2="36" y2="60"/>
    <line x1="60" y1="48" x2="60" y2="60"/>
  </g>
  </svg><svg x="0" y="72" xmlns="http://www.w3.org/2000/svg" xmlns:xlink="http://www.w3.org/1999/xlink" width="72px" height="72px" viewBox="0 0 72 72">
    <g class="dots" fill="#ec008b">
      <circle cx="12" cy="12" r="1.5"/>
      <circle cx="24" cy="12" r="1.5"/>
      <circle cx="36" cy="12" r="1.5"/>
      <circle cx="48" cy="12" r="1.5"/>
      <circle cx="60" cy="12" r="1.5"/>
      <circle cx="12" cy="24" r="1.5"/>
      <circle cx="24" cy="24" r="1.5"/>
      <circle cx="36" cy="24" r="1.5"/>
      <circle cx="48" cy="24" r="1.5"/>
      <circle cx="60" cy="24" r="1.5"/>
      <circle cx="12" cy="36" r="1.5"/>
      <circle cx="24" cy="36" r="1.5"/>
      <circle cx="36" cy="36" r="1.5"/>
      <circle cx="48" cy="36" r="1.5"/>
      <circle cx="60" cy="36" r="1.5"/>
      <circle cx="12" cy="48" r="1.5"/>
      <circle cx="24" cy="48" r="1.5"/>
      <circle cx="36" cy="48" r="1.5"/>
      <circle cx="48" cy="48" r="1.5"/>
      <circle cx="60" cy="48" r="1.5"/>
      <circle cx="12" cy="60" r="1.5"/>
      <circle cx="24" cy="60" r="1.5"/>
      <circle cx="36" cy="60" r="1.5"/>
      <circle cx="48" cy="60" r="1.5"/>
      <circle cx="60" cy="60" r="1.5"/>
    </g>
    <g class="lines" fill="none" stroke="black" stroke-width="3" stroke-linecap="round">
      <line x1="12" y1="12" x2="24" y2="12"/>
    <line x1="48" y1="12" x2="60" y2="12"/>
    <line x1="12" y1="36" x2="24" y2="36"/>
    <line x1="24" y1="36" x2="36" y2="36"/>
    <line x1="36" y1="36" x2="48" y2="36"/>
    <line x1="48" y1="36" x2="60" y2="36"/>
    <line x1="12" y1="60" x2="24" y2="60"/>
    <line x1="48" y1="60" x2="60" y2="60"/>
    <line x1="24" y1="12" x2="24" y2="24"/>
    <line x1="36" y1="12" x2="36" y2="24"/>
    <line x1="48" y1="12" x2="48" y2="24"/>
    <line x1="24" y1="24" x2="24" y2="36"/>
    <line x1="36" y1="24" x2="36" y2="36"/>
    <line x1="48" y1="24" x2="48" y2="36"/>
    <line x1="24" y1="36" x2="24" y2="48"/>
    <line x1="36" y1="36" x2="36" y2="48"/>
    <line x1="48" y1="36" x2="48" y2="48"/>
    <line x1="24" y1="48" x2="24" y2="60"/>
    <line x1="36" y1="48" x2="36" y2="60"/>
    <line x1="48" y1="48" x2="48" y2="60"/>
  </g>
  </svg><svg x="72" y="72" xmlns="http://www.w3.org/2000/svg" xmlns:xlink="http://www.w3.org/1999/xlink" width="72px" height="72px" viewBox="0 0 72 72">
    <g class="dots" fill="#ec008b">
      <circle cx="12" cy="12" r="1.5"/>
      <circle cx="24" cy="12" r="1.5"/>
      <circle cx="36" cy="12" r="1.5"/>
      <circle cx="48" cy="12" r="1.5"/>
      <circle cx="60" cy="12" r="1.5"/>
      <circle cx="12" cy="24" r="1.5"/>
      <circle cx="24" cy="24" r="1.5"/>
      <circle cx="36" cy="24" r="1.5"/>
      <circle cx="48" cy="24" r="1.5"/>
      <circle cx="60" cy="24" r="1.5"/>
      <circle cx="12" cy="36" r="1.5"/>
      <circle cx="24" cy="36" r="1.5"/>
      <circle cx="36" cy="36" r="1.5"/>
      <circle cx="48" cy="36" r="1.5"/>
      <circle cx="60" cy="36" r="1.5"/>
      <circle cx="12" cy="48" r="1.5"/>
      <circle cx="24" cy="48" r="1.5"/>
      <circle cx="36" cy="48" r="1.5"/>
      <circle cx="48" cy="48" r="1.5"/>
      <circle cx="60" cy="48" r="1.5"/>
      <circle cx="12" cy="60" r="1.5"/>
      <circle cx="24" cy="60" r="1.5"/>
      <circle cx="36" cy="60" r="1.5"/>
      <circle cx="48" cy="60" r="1.5"/>
      <circle cx="60" cy="60" r="1.5"/>
    </g>
    <g class="lines" fill="none" stroke="black" stroke-width="3" stroke-linecap="round">
      <line x1="12" y1="12" x2="24" y2="12"/>
    <line x1="24" y1="12" x2="36" y2="12"/>
    <line x1="36" y1="12" x2="48" y2="12"/>
    <line x1="48" y1="12" x2="60" y2="12"/>
    <line x1="12" y1="24" x2="24" y2="24"/>
    <line x1="48" y1="24" x2="60" y2="24"/>
    <line x1="12" y1="48" x2="24" y2="48"/>
    <line x1="48" y1="48" x2="60" y2="48"/>
    <line x1="12" y1="60" x2="24" y2="60"/>
    <line x1="24" y1="60" x2="36" y2="60"/>
    <line x1="36" y1="60" x2="48" y2="60"/>
    <line x1="48" y1="60" x2="60" y2="60"/>
    <line x1="24" y1="12" x2="24" y2="24"/>
    <line x1="48" y1="12" x2="48" y2="24"/>
    <line x1="12" y1="24" x2="12" y2="36"/>
    <line x1="60" y1="24" x2="60" y2="36"/>
    <line x1="12" y1="36" x2="12" y2="48"/>
    <line x1="60" y1="36" x2="60" y2="48"/>
    <line x1="24" y1="48" x2="24" y2="60"/>
    <line x1="48" y1="48" x2="48" y2="60"/>
  </g>
  </svg><svg x="144" y="72" xmlns="http://www.w3.org/2000/svg" xmlns:xlink="http://www.w3.org/1999/xlink" width="72px" height="72px" viewBox="0 0 72 72">
    <g class="dots" fill="#ec008b">
      <circle cx="12" cy="12" r="1.5"/>
      <circle cx="24" cy="12" r="1.5"/>
      <circle cx="36" cy="12" r="1.5"/>
      <circle cx="48" cy="12" r="1.5"/>
      <circle cx="60" cy="12" r="1.5"/>
      <circle cx="12" cy="24" r="1.5"/>
      <circle cx="24" cy="24" r="1.5"/>
      <circle cx="36" cy="24" r="1.5"/>
      <circle cx="48" cy="24" r="1.5"/>
      <circle cx="60" cy="24" r="1.5"/>
      <circle cx="12" cy="36" r="1.5"/>
      <circle cx="24" cy="36" r="1.5"/>
      <circle cx="36" cy="36" r="1.5"/>
      <circle cx="48" cy="36" r="1.5"/>
      <circle cx="60" cy="36" r="1.5"/>
      <circle cx="12" cy="48" r="1.5"/>
      <circle cx="24" cy="48" r="1.5"/>
      <circle cx="36" cy="48" r="1.5"/>
      <circle cx="48" cy="48" r="1.5"/>
      <circle cx="60" cy="48" r="1.5"/>
      <circle cx="12" cy="60" r="1.5"/>
      <circle cx="24" cy="60" r="1.5"/>
      <circle cx="36" cy="60" r="1.5"/>
      <circle cx="48" cy="60" r="1.5"/>
      <circle cx="60" cy="60" r="1.5"/>
    </g>
    <g class="lines" fill="none" stroke="black" stroke-width="3" stroke-linecap="round">
      <line x1="12" y1="12" x2="24" y2="12"/>
    <line x1="48" y1="12" x2="60" y2="12"/>
    <line x1="24" y1="24" x2="36" y2="24"/>
    <line x1="36" y1="24" x2="48" y2="24"/>
    <line x1="12" y1="36" x2="24" y2="36"/>
    <line x1="48" y1="36" x2="60" y2="36"/>
    <line x1="24" y1="48" x2="36" y2="48"/>
    <line x1="36" y1="48" x2="48" y2="48"/>
    <line x1="12" y1="60" x2="24" y2="60"/>
    <line x1="48" y1="60" x2="60" y2="60"/>
    <line x1="36" y1="12" x2="36" y2="24"/>
    <line x1="12" y1="24" x2="12" y2="36"/>
    <line x1="24" y1="24" x2="24" y2="36"/>
    <line x1="48" y1="24" x2="48" y2="36"/>
    <line x1="60" y1="24" x2="60" y2="36"/>
    <line x1="12" y1="36" x2="12" y2="48"/>
    <line x1="24" y1="36" x2="24" y2="48"/>
    <line x1="48" y1="36" x2="48" y2="48"/>
    <line x1="60" y1="36" x2="60" y2="48"/>
    <line x1="36" y1="48" x2="36" y2="60"/>
  </g>
  </svg><svg x="0" y="144" xmlns="http://www.w3.org/2000/svg" xmlns:xlink="http://www.w3.org/1999/xlink" width="72px" height="72px" viewBox="0 0 72 72">
    <g class="dots" fill="#ec008b">
      <circle cx="12" cy="12" r="1.5"/>
      <circle cx="24" cy="12" r="1.5"/>
      <circle cx="36" cy="12" r="1.5"/>
      <circle cx="48" cy="12" r="1.5"/>
      <circle cx="60" cy="12" r="1.5"/>
      <circle cx="12" cy="24" r="1.5"/>
      <circle cx="24" cy="24" r="1.5"/>
      <circle cx="36" cy="24" r="1.5"/>
      <circle cx="48" cy="24" r="1.5"/>
      <circle cx="60" cy="24" r="1.5"/>
      <circle cx="12" cy="36" r="1.5"/>
      <circle cx="24" cy="36" r="1.5"/>
      <circle cx="36" cy="36" r="1.5"/>
      <circle cx="48" cy="36" r="1.5"/>
      <circle cx="60" cy="36" r="1.5"/>
      <circle cx="12" cy="48" r="1.5"/>
      <circle cx="24" cy="48" r="1.5"/>
      <circle cx="36" cy="48" r="1.5"/>
      <circle cx="48" cy="48" r="1.5"/>
      <circle cx="60" cy="48" r="1.5"/>
      <circle cx="12" cy="60" r="1.5"/>
      <circle cx="24" cy="60" r="1.5"/>
      <circle cx="36" cy="60" r="1.5"/>
      <circle cx="48" cy="60" r="1.5"/>
      <circle cx="60" cy="60" r="1.5"/>
    </g>
    <g class="lines" fill="none" stroke="black" stroke-width="3" stroke-linecap="round">
      <line x1="12" y1="12" x2="24" y2="12"/>
    <line x1="48" y1="12" x2="60" y2="12"/>
    <line x1="12" y1="24" x2="24" y2="24"/>
    <line x1="24" y1="24" x2="36" y2="24"/>
    <line x1="36" y1="24" x2="48" y2="24"/>
    <line x1="48" y1="24" x2="60" y2="24"/>
    <line x1="12" y1="48" x2="24" y2="48"/>
    <line x1="24" y1="48" x2="36" y2="48"/>
    <line x1="36" y1="48" x2="48" y2="48"/>
    <line x1="48" y1="48" x2="60" y2="48"/>
    <line x1="12" y1="60" x2="24" y2="60"/>
    <line x1="48" y1="60" x2="60" y2="60"/>
    <line x1="24" y1="12" x2="24" y2="24"/>
    <line x1="48" y1="12" x2="48" y2="24"/>
    <line x1="24" y1="24" x2="24" y2="36"/>
    <line x1="48" y1="24" x2="48" y2="36"/>
    <line x1="24" y1="36" x2="24" y2="48"/>
    <line x1="48" y1="36" x2="48" y2="48"/>
    <line x1="24" y1="48" x2="24" y2="60"/>
    <line x1="48" y1="48" x2="48" y2="60"/>
  </g>
  </svg><svg x="72" y="144" xmlns="http://www.w3.org/2000/svg" xmlns:xlink="http://www.w3.org/1999/xlink" width="72px" height="72px" viewBox="0 0 72 72">
    <g class="dots" fill="#ec008b">
      <circle cx="12" cy="12" r="1.5"/>
      <circle cx="24" cy="12" r="1.5"/>
      <circle cx="36" cy="12" r="1.5"/>
      <circle cx="48" cy="12" r="1.5"/>
      <circle cx="60" cy="12" r="1.5"/>
      <circle cx="12" cy="24" r="1.5"/>
      <circle cx="24" cy="24" r="1.5"/>
      <circle cx="36" cy="24" r="1.5"/>
      <circle cx="48" cy="24" r="1.5"/>
      <circle cx="60" cy="24" r="1.5"/>
      <circle cx="12" cy="36" r="1.5"/>
      <circle cx="24" cy="36" r="1.5"/>
      <circle cx="36" cy="36" r="1.5"/>
      <circle cx="48" cy="36" r="1.5"/>
      <circle cx="60" cy="36" r="1.5"/>
      <circle cx="12" cy="48" r="1.5"/>
      <circle cx="24" cy="48" r="1.5"/>
      <circle cx="36" cy="48" r="1.5"/>
      <circle cx="48" cy="48" r="1.5"/>
      <circle cx="60" cy="48" r="1.5"/>
      <circle cx="12" cy="60" r="1.5"/>
      <circle cx="24" cy="60" r="1.5"/>
      <circle cx="36" cy="60" r="1.5"/>
      <circle cx="48" cy="60" r="1.5"/>
      <circle cx="60" cy="60" r="1.5"/>
    </g>
    <g class="lines" fill="none" stroke="black" stroke-width="3" stroke-linecap="round">
      <line x1="12" y1="12" x2="24" y2="12"/>
    <line x1="24" y1="12" x2="36" y2="12"/>
    <line x1="36" y1="12" x2="48" y2="12"/>
    <line x1="48" y1="12" x2="60" y2="12"/>
    <line x1="12" y1="36" x2="24" y2="36"/>
    <line x1="24" y1="36" x2="36" y2="36"/>
    <line x1="36" y1="36" x2="48" y2="36"/>
    <line x1="48" y1="36" x2="60" y2="36"/>
    <line x1="12" y1="60" x2="24" y2="60"/>
    <line x1="24" y1="60" x2="36" y2="60"/>
    <line x1="36" y1="60" x2="48" y2="60"/>
    <line x1="48" y1="60" x2="60" y2="60"/>
    <line x1="24" y1="12" x2="24" y2="24"/>
    <line x1="48" y1="12" x2="48" y2="24"/>
    <line x1="12" y1="24" x2="12" y2="36"/>
    <line x1="60" y1="24" x2="60" y2="36"/>
    <line x1="12" y1="36" x2="12" y2="48"/>
    <line x1="60" y1="36" x2="60" y2="48"/>
    <line x1="24" y1="48" x2="24" y2="60"/>
    <line x1="48" y1="48" x2="48" y2="60"/>
  </g>
  </svg><svg x="144" y="144" xmlns="http://www.w3.org/2000/svg" xmlns:xlink="http://www.w3.org/1999/xlink" width="72px" height="72px" viewBox="0 0 72 72">
    <g class="dots" fill="#ec008b">
      <circle cx="12" cy="12" r="1.5"/>
      <circle cx="24" cy="12" r="1.5"/>
      <circle cx="36" cy="12" r="1.5"/>
      <circle cx="48" cy="12" r="1.5"/>
      <circle cx="60" cy="12" r="1.5"/>
      <circle cx="12" cy="24" r="1.5"/>
      <circle cx="24" cy="24" r="1.5"/>
      <circle cx="36" cy="24" r="1.5"/>
      <circle cx="48" cy="24" r="1.5"/>
      <circle cx="60" cy="24" r="1.5"/>
      <circle cx="12" cy="36" r="1.5"/>
      <circle cx="24" cy="36" r="1.5"/>
      <circle cx="36" cy="36" r="1.5"/>
      <circle cx="48" cy="36" r="1.5"/>
      <circle cx="60" cy="36" r="1.5"/>
      <circle cx="12" cy="48" r="1.5"/>
      <circle cx="24" cy="48" r="1.5"/>
      <circle cx="36" cy="48" r="1.5"/>
      <circle cx="48" cy="48" r="1.5"/>
      <circle cx="60" cy="48" r="1.5"/>
      <circle cx="12" cy="60" r="1.5"/>
      <circle cx="24" cy="60" r="1.5"/>
      <circle cx="36" cy="60" r="1.5"/>
      <circle cx="48" cy="60" r="1.5"/>
      <circle cx="60" cy="60" r="1.5"/>
    </g>
    <g class="lines" fill="none" stroke="black" stroke-width="3" stroke-linecap="round">
      <line x1="24" y1="12" x2="36" y2="12"/>
    <line x1="36" y1="12" x2="48" y2="12"/>
    <line x1="12" y1="24" x2="24" y2="24"/>
    <line x1="48" y1="24" x2="60" y2="24"/>
    <line x1="12" y1="48" x2="24" y2="48"/>
    <line x1="48" y1="48" x2="60" y2="48"/>
    <line x1="24" y1="60" x2="36" y2="60"/>
    <line x1="36" y1="60" x2="48" y2="60"/>
    <line x1="24" y1="12" x2="24" y2="24"/>
    <line x1="48" y1="12" x2="48" y2="24"/>
    <line x1="12" y1="24" x2="12" y2="36"/>
    <line x1="24" y1="24" x2="24" y2="36"/>
    <line x1="48" y1="24" x2="48" y2="36"/>
    <line x1="60" y1="24" x2="60" y2="36"/>
    <line x1="12" y1="36" x2="12" y2="48"/>
    <line x1="24" y1="36" x2="24" y2="48"/>
    <line x1="48" y1="36" x2="48" y2="48"/>
    <line x1="60" y1="36" x2="60" y2="48"/>
    <line x1="24" y1="48" x2="24" y2="60"/>
    <line x1="48" y1="48" x2="48" y2="60"/>
  </g>
  </svg></svg>